<svg width="32" height="32" viewBox="0 0 32 32" fill="none" xmlns="http://www.w3.org/2000/svg">
<path d="M32 16C32 24.8368 24.8368 32 16 32C7.16352 32 0 24.8368 0 16C0 7.16336 7.16352 0 16 0C24.8368 0 32 7.16336 32 16Z" fill="#0FF4E7"/>
<path d="M23.5098 8.06836H8.35938V11.726H14.1058V17.102H17.7634V11.726H23.5098V8.06836Z" fill="black"/>
<path d="M15.9696 17.6746C11.216 17.6746 7.36213 16.9223 7.36213 15.9941C7.36213 15.0661 11.2159 14.3137 15.9696 14.3137C20.7232 14.3137 24.577 15.0661 24.577 15.9941C24.577 16.9223 20.7232 17.6746 15.9696 17.6746ZM25.6344 16.2743C25.6344 15.0775 21.3074 14.1074 15.9696 14.1074C10.632 14.1074 6.30469 15.0775 6.30469 16.2743C6.30469 17.3282 9.66005 18.2063 14.1063 18.4009V26.1183H17.7636V18.4039C22.244 18.2154 25.6344 17.3337 25.6344 16.2743Z" fill="black"/>
</svg>
